# xmcd
#
# Track frame offsets:
#	150
#	15516
#	30945
#	46418
#	54800
#	72482
#	87921
#	106916
#	118749
#	135924
#	153617
#	168938
#	182973
#	201351
#	216744
#	232965
#	245611
#	260301
#
# Disc length: 3740 seconds
#
# Revision: 0
# Processed by: cddbd v1.5.2PL0 Copyright (c) Steve Scherf et al.
# Submitted via: audiograbber 1.83.01
#
DISCID=f50e9a12
DTITLE=Various Artist - Country Music Messe 2014 CD1
DYEAR=2014
DGENRE=Country
TTITLE0=Arne Benoni - Stand Back
TTITLE1=Gitty and Iris P. - Too Much Trouble For Today
TTITLE2=Mark Merritt Band - The Girl Behind The Bar
TTITLE3=Sjöström and Gullö - Dragets Kanal
TTITLE4=Eddy Gee - I Need You
TTITLE5=Western Sunset - Lonesome Rider
TTITLE6=Henry Eye - Ronja
TTITLE7=The Wildfires - One And The Same
TTITLE8=Hermann Lammers Meyer - Fiddlin´ Man
TTITLE9=Music Road Pilots - Crash Course In The Blues
TTITLE10=Barry P. Foley and Jolina Carl - Don´t Blame It On Me
TTITLE11=Lisa-Marie Fischer - Break My Heart Instead
TTITLE12=David Lee Howard - High Plains Drifter
TTITLE13=Jessica Falk - Let ´em know (This Girl ´s Here To Play)
TTITLE14=Wild Bunch - Hey, Ho, Cheerio
TTITLE15=NightHawk - Everything Is Alright
TTITLE16=Cadi Country Rock! - Blue Collar Man
TTITLE17=Sawyer - Drive Your Dream
EXTD=
EXTT0=
EXTT1=
EXTT2=
EXTT3=
EXTT4=
EXTT5=
EXTT6=
EXTT7=
EXTT8=
EXTT9=
EXTT10=
EXTT11=
EXTT12=
EXTT13=
EXTT14=
EXTT15=
EXTT16=
EXTT17=
PLAYORDER=
